<?xml version="1.0" encoding="utf-8"?>
<!-- Svg Vector Icons : http://www.onlinewebfonts.com/icon -->
<!DOCTYPE svg PUBLIC "-//W3C//DTD SVG 1.1//EN" "http://www.w3.org/Graphics/SVG/1.1/DTD/svg11.dtd">
<svg version="1.1" xmlns="http://www.w3.org/2000/svg" xmlns:xlink="http://www.w3.org/1999/xlink" x="0px" y="0px" viewBox="0 0 1000 1000" enable-background="new 0 0 1000 1000" xml:space="preserve">
<metadata> Svg Vector Icons : http://www.onlinewebfonts.com/icon </metadata>
<g><path d="M500,990C267.7,990,79.4,801.7,79.4,569.4c0-178.8,111.8-331.2,269.2-392V327C267.9,377.6,214,467.1,214,569.4c0,157.9,128.1,286,286,286c157.9,0,286-128.1,286-286c0-87.4-39.2-165.4-100.9-217.9V192.1c139.4,68.5,235.5,211.5,235.5,377.3C920.6,801.7,732.3,990,500,990z M516.8,518.9c-37.1,0-67.3-30.2-67.3-67.3V77.3c0-37.1,30.1-67.3,67.3-67.3c37.1,0,67.3,30.1,67.3,67.3v374.3C584.1,488.8,554,518.9,516.8,518.9z"/></g>
</svg>